<svg height="454pt" viewBox="0 -12 454.768 454" width="454pt" xmlns="http://www.w3.org/2000/svg"><path d="m430.011719 152.933594c-15.671875-15.769532-37.003907-24.605469-59.234375-24.53125-2.1875 0-4.441406.023437-6.734375.140625-3.988281-71.847657-63.375-128.085938-135.335938-128.160157-29.816406-.09375-58.816406 9.75-82.421875 27.96875-21.695312 16.710938-37.875 39.546876-46.449218 65.554688-57.621094 9.429688-99.9023442 59.253906-99.83203175 117.640625 0 .101563 0 .191406.00390625.289063v.277343c-.00390625.125-.0078125.0625-.0078125.1875.0742188 53.175781 43.21875 96.234375 96.394531 96.207031h85.992188v20h-34.191407c-2.074218-.050781-4.082031.746094-5.554687 2.207032-1.472656 1.460937-2.289063 3.460937-2.253906 5.535156v33.746094c-4.6875 1.234375-8.941407 3.738281-12.300781 7.230468-8.269532 8.109376-10.832032 20.402344-6.488282 31.136719 4.339844 10.734375 14.726563 17.792969 26.308594 17.871094 11.578125.082031 22.0625-6.832031 26.550781-17.503906 4.492188-10.675781 2.101563-23-6.054687-31.222657h.09375c-3.457032-4-8.109375-6.1875-12.109375-7.511718v-25.488282h33.71875c4.523437-.097656 8.167969-3.734374 8.28125-8.257812v-27.742188h21v66.109376c-13.640625 3.980468-22.277344 17.386718-20.265625 31.453124 2.007812 14.0625 14.054687 24.511719 28.265625 24.511719 14.207031 0 26.253906-10.449219 28.265625-24.511719 2.011718-14.066406-6.625-27.472656-20.265625-31.453124v-66.109376h21v27.742188c.109375 4.523438 3.757812 8.160156 8.28125 8.257812h33.71875v25.488282c-4 1.324218-8.65625 3.511718-12.109375 7.511718h.046875c-11.039063 11.214844-10.90625 29.253907.300781 40.300782 11.207031 11.050781 29.246094 10.929687 40.300781-.269532 11.058594-11.199218 10.949219-29.238281-.238281-40.300781-3.359375-3.5-7.613281-6.003906-12.300781-7.242187v-33.746094c.03125-2.074219-.78125-4.074219-2.253907-5.535156-1.476562-1.460938-3.480468-2.257813-5.554687-2.207032h-34.191406v-20h85.992187c53.171875.027344 96.3125-43.027343 96.390625-96.199218 0-.640625-.085937-1.273438-.25-1.890625-.410156-21.613281-9.199219-42.222657-24.507812-57.484375zm-272.925781 253.390625c-4.910157 4.910156-12.871094 4.910156-17.78125 0-4.910157-4.910157-4.910157-12.871094 0-17.78125 4.910156-4.910157 12.871093-4.910157 17.78125 0 2.378906 2.347656 3.714843 5.546875 3.714843 8.890625 0 3.339844-1.335937 6.542968-3.714843 8.890625zm82.875-4.269531c0 5.691406-3.820313 10.671874-9.320313 12.148437-5.496094 1.472656-11.296875-.929687-14.144531-5.859375-2.84375-4.929688-2.023438-11.152344 2-15.179688 3.59375-3.59375 9.003906-4.671874 13.703125-2.722656 4.695312 1.945313 7.761719 6.53125 7.761719 11.617188zm79.191406-4.621094c0 5.691406-3.820313 10.671875-9.316406 12.144531-5.5 1.472656-11.300782-.929687-14.144532-5.859375-2.847656-4.925781-2.027344-11.152344 1.996094-15.175781 3.597656-3.597657 9.003906-4.671875 13.703125-2.726563 4.699219 1.945313 7.761719 6.53125 7.765625 11.617188zm-120.765625-104.925782v-29.085937l8.746093 3.429687c.894532.355469 1.847657.539063 2.808594.539063 2.320313 0 4.519532-1.015625 6.027344-2.777344l3.417969-4v31.894531zm-29.828125-99.019531c-1.160156-6.316406-1.324219-12.773437-.496094-19.140625.347656-2.667968-.667969-5.332031-2.707031-7.089844l-5.238281-4.515624 4.132812-10.703126 7.007812.207032c2.757813.070312 5.355469-1.273438 6.894532-3.558594 3.507812-5.273438 7.910156-9.894531 13.003906-13.65625 2.207031-1.632812 3.421875-4.28125 3.222656-7.019531l-.519531-7.019531 10.566406-4.621094 4.890625 5.097656c1.859375 1.941406 4.570313 2.820312 7.210938 2.332031 6.316406-1.15625 12.777344-1.324219 19.144531-.492187 2.667969.347656 5.332031-.671875 7.089844-2.707032l4.515625-5.238281 10.699218 4.132813-.207031 7.011718c-.078125 2.757813 1.265625 5.363282 3.558594 6.890626 5.273437 3.511718 9.894531 7.910156 13.65625 13 1.632813 2.207031 4.28125 3.421874 7.019531 3.222656l7.023438-.515625 4.621094 10.5625-5.101563 4.890625c-1.9375 1.859375-2.816406 4.570312-2.332031 7.214844 1.15625 6.316406 1.324218 12.773437.496094 19.140624-.347657 2.667969.667968 5.328126 2.707031 7.085938l5.234375 4.519531-4.128906 10.699219-7.011719-.207031c-2.757813-.089844-5.367188 1.257812-6.890625 3.558593-3.507813 5.273438-7.910156 9.894532-13 13.65625-2.207032 1.632813-3.421875 4.28125-3.222656 7.019532l.515624 7.023437-10.5625 4.621094-4.890624-5.101563c-1.859376-1.9375-4.570313-2.8125-7.214844-2.332031-6.3125 1.160157-12.773438 1.328125-19.140625.5-2.667969-.347656-5.332031.671875-7.085938 2.707031l-4.519531 5.238282-10.699219-4.132813.207031-7.007812c.082032-2.757813-1.265624-5.363281-3.558593-6.890625-5.269531-3.511719-9.890625-7.910156-13.65625-13-1.632813-2.203125-4.28125-3.421875-7.019531-3.222656l-7.023438.515624-4.621094-10.5625 5.101563-4.890624c1.941406-1.863282 2.8125-4.578126 2.328125-7.222657zm66.828125 99.019531v-34.5c.464843-.050781.933593-.082031 1.398437-.140624l5.878906 6.128906c2.265626 2.417968 5.8125 3.136718 8.839844 1.789062l4.882813-2.199218v28.921874zm122.992187 0h-85.992187v-35.933593c3.046875-1.382813 4.933593-4.492188 4.757812-7.832031l-.550781-8.441407c3.957031-3.320312 7.535156-7.066406 10.675781-11.167969l8.425781.246094c3.390626.089844 6.472657-1.957031 7.707032-5.117187l8.199218-21.238281c1.21875-3.152344.324219-6.730469-2.234374-8.9375l-6.347657-5.480469c.375-5.125.242188-10.277344-.398437-15.375l6.125-5.878907c2.421875-2.320312 3.136718-5.90625 1.792968-8.980468l-9.125-20.863282c-1.359374-3.109374-4.53125-5.019531-7.914062-4.773437l-8.4375.621094c-3.324219-3.949219-7.074219-7.519531-11.175781-10.648438l.246093-8.40625c.101563-3.390625-1.949218-6.476562-5.113281-7.699219l-21.234375-8.195312c-3.152344-1.214844-6.730468-.320312-8.9375 2.238281l-5.480468 6.351563c-5.125-.375-10.277344-.242188-15.378907.402344l-5.878906-6.128907c-2.320313-2.421875-5.90625-3.136719-8.976563-1.792969l-20.871093 9.132813c-3.109375 1.359375-5.023438 4.53125-4.773438 7.914063l.621094 8.4375c-3.945313 3.324218-7.515625 7.070312-10.644531 11.171874l-8.40625-.246093c-3.390625-.105469-6.480469 1.949219-7.699219 5.117187l-8.199219 21.238282c-1.21875 3.152343-.320312 6.730468 2.238282 8.9375l6.351562 5.480468c-.375 5.125-.242188 10.277344.398438 15.375l-6.128907 5.878906c-2.417969 2.320313-3.136719 5.90625-1.789062 8.980469l9.128906 20.867188c1.355469 3.109375 4.53125 5.023437 7.914063 4.769531l8.441406-.621094c3.324218 3.945313 7.070312 7.511719 11.171875 10.640625l-.105469 8.40625c-.011719 1.742188.550781 3.441407 1.605469 4.832031v36.71875h-85.992188c-44.167969.035157-80.078125-35.59375-80.390625-79.757812.011719-.175781.015625-.28125.015625-.457031.003907-.261719-.007812-.523438-.035156-.785157h.023437c0-52 39.089844-96.398437 90.921876-102.457031 3.214843-.371093 5.886718-2.644531 6.769531-5.753906 16.277343-57.382813 72.367187-93.984375 131.449219-85.78125 59.082031 8.207031 103.070312 58.710937 103.09375 118.359375 0 .476562 0 .953125-.011719 1.429688-.054688 2.429687.992187 4.75 2.851562 6.3125s4.328125 2.199218 6.710938 1.722656c19.960937-3.753906 40.554687 1.589844 56.171875 14.574218 15.617187 12.988282 24.628906 32.261719 24.582031 52.570313 0 .546875.066406 1.09375.203125 1.625-1.046875 43.625-36.730469 78.433594-80.371094 78.398437zm0 0"/><path d="m227.386719 225.574219c23.714843 0 42.941406-19.226563 42.941406-42.945313 0-23.714844-19.226563-42.941406-42.941406-42.941406-23.71875 0-42.945313 19.226562-42.945313 42.941406.027344 23.707032 19.238282 42.917969 42.945313 42.945313zm0-69.886719c14.878906 0 26.941406 12.0625 26.941406 26.941406s-12.0625 26.945313-26.941406 26.945313c-14.878907 0-26.941407-12.0625-26.945313-26.945313.019532-14.871094 12.070313-26.925781 26.945313-26.941406zm0 0"/></svg>